<svg xmlns="http://www.w3.org/2000/svg" width="981" height="254" viewBox="0 0 981 254" version="1.1"><path d="M 132.152 19.989 C 122.610 25.450, 114.173 30.442, 113.402 31.082 C 111.456 32.696, 111.312 93.207, 113.250 94.752 C 114.423 95.687, 133.950 106.817, 166.750 125.247 L 181 133.254 181 140.621 L 181 147.987 176.750 151.068 C 171.895 154.586, 169.355 154.514, 163.273 150.682 C 157.120 146.805, 127.340 129.935, 102 115.970 C 95.675 112.485, 89.713 108.971, 88.750 108.162 C 87.175 106.837, 87 104.343, 87 83.174 C 87 62.919, 86.776 59.410, 85.383 57.871 C 83.837 56.162, 83.555 56.192, 78.883 58.559 L 74 61.034 74 87.949 L 74 114.864 76.750 116.784 C 78.263 117.841, 87.150 122.990, 96.500 128.227 C 116.169 139.244, 157.331 162.357, 161 164.444 C 163.340 165.775, 163.547 166.555, 164.229 176.620 C 164.631 182.535, 164.759 187.574, 164.515 187.819 C 164.270 188.063, 160.706 185.121, 156.594 181.281 C 152.482 177.441, 145.154 171.589, 140.309 168.277 C 129.923 161.175, 114.129 152, 112.292 152 C 110.895 152, 110.591 156.897, 111.607 163.033 C 112.075 165.861, 113.019 167.035, 116.346 168.920 C 123.134 172.768, 142.197 185.748, 146.427 189.404 L 150.354 192.797 138.927 188.977 C 122.335 183.430, 113.051 181.172, 99.270 179.334 L 87.040 177.702 86.770 157.110 L 86.500 136.519 81.044 133.259 C 78.044 131.467, 75.231 130, 74.794 130 C 74.357 130, 74 143.255, 74 159.455 L 74 188.909 77.250 189.413 C 79.037 189.689, 83.200 190.194, 86.500 190.535 C 98.007 191.722, 118.483 196.178, 130.377 200.083 C 137.246 202.339, 148.496 207.214, 156.744 211.509 C 164.657 215.629, 171.543 219, 172.048 219 C 172.552 219, 176.010 217.127, 179.732 214.838 C 199.552 202.648, 226.474 193.887, 253 190.996 C 258.225 190.426, 263.962 189.694, 265.750 189.369 L 269 188.777 269 139.889 C 269 94.979, 268.865 91, 267.338 91 C 264.918 91, 257.207 95.745, 256.018 97.966 C 255.377 99.164, 255 114.299, 255 138.831 L 255 177.793 246.250 178.934 C 227.559 181.371, 214.031 184.600, 201.180 189.690 C 197.704 191.067, 194.630 191.963, 194.348 191.682 C 193.495 190.828, 208.108 180.320, 220.154 173.124 L 231.500 166.347 232 131.549 L 232.500 96.750 249 87.308 C 258.075 82.115, 266.049 77.331, 266.720 76.677 C 267.392 76.023, 268.237 72.299, 268.599 68.402 L 269.258 61.315 264.503 58.658 C 259.153 55.667, 257 55.321, 257 57.451 C 257 58.249, 256.525 61.117, 255.944 63.824 L 254.888 68.747 245.194 74.069 C 228.052 83.478, 223.577 86.628, 221.105 91.026 C 219.426 94.015, 218.346 94.968, 217.148 94.519 C 215.432 93.877, 178.781 73.248, 168.750 67.277 L 163 63.855 163 40.476 L 163 17.096 156.946 13.548 C 153.617 11.597, 150.579 10.013, 150.196 10.029 C 149.813 10.046, 141.693 14.527, 132.152 19.989 M 205.500 26.519 C 202.200 27.879, 199.424 28.993, 199.331 28.995 C 198.861 29.008, 197.210 38.531, 197.576 39.123 C 197.810 39.502, 200.270 40.124, 203.041 40.506 L 208.079 41.199 207.790 45.803 L 207.500 50.408 216 52.650 C 226.954 55.540, 227.755 55.508, 232.383 52.006 C 234.519 50.390, 237.725 48.586, 239.508 47.997 C 242.190 47.112, 242.856 46.286, 243.364 43.214 C 244.735 34.923, 244.475 34.317, 238.750 32.437 C 235.863 31.488, 229.731 29.202, 225.124 27.356 C 215.165 23.366, 213.344 23.288, 205.500 26.519 M 138.530 31.572 C 123.546 39.863, 124.920 36.580, 125.232 63.331 L 125.500 86.320 142 95.750 C 151.075 100.937, 166.150 109.441, 175.500 114.650 C 184.850 119.858, 193.063 124.853, 193.750 125.751 C 195.082 127.490, 195.394 150.391, 194.146 154.829 C 193.709 156.382, 190.994 158.561, 185.995 161.370 L 178.500 165.583 178.216 176.912 L 177.932 188.240 185.216 181.745 C 192.448 175.296, 204.595 166.593, 212.755 162.014 C 218.505 158.787, 218.988 156.530, 218.994 132.861 C 218.999 115.586, 218.789 112.979, 217.250 111.207 C 216.287 110.099, 208.750 105.413, 200.500 100.793 C 192.250 96.174, 177.546 87.918, 167.825 82.447 L 150.150 72.500 149.456 65.233 C 149.074 61.237, 148.945 50.774, 149.169 41.983 C 149.392 33.192, 149.333 26.013, 149.038 26.028 C 148.742 26.043, 144.013 28.538, 138.530 31.572 M 317.892 87.449 C 305.478 90.601, 296 101.434, 296 112.471 C 296 125.170, 305.751 133.918, 325 138.485 C 335.030 140.864, 338.616 142.413, 339.975 144.953 C 342.612 149.881, 336.921 154.990, 328.788 154.996 C 322.598 155.001, 314.087 151.744, 310.497 147.997 C 308.918 146.349, 307.148 145.018, 306.563 145.039 C 305.978 145.060, 302.814 147.493, 299.530 150.444 C 293.911 155.496, 293.636 155.951, 294.842 158.205 C 296.611 161.510, 307.358 168.446, 314 170.569 C 321.358 172.922, 334.805 172.955, 341.671 170.637 C 352.068 167.128, 361.011 155.749, 360.990 146.054 C 360.978 140.345, 357.326 132.294, 353.158 128.787 C 349.736 125.907, 342.680 123.008, 332.962 120.490 C 319.279 116.944, 314.089 112.565, 317.466 107.412 C 320.677 102.512, 333.191 103.333, 342.384 109.048 C 345.086 110.728, 347.616 111.742, 348.005 111.301 C 351.537 107.297, 357 99.572, 357 98.580 C 357 96.605, 349.041 91.453, 342.500 89.194 C 335.221 86.679, 324.044 85.887, 317.892 87.449 M 621.500 88 C 620.400 88.473, 617.808 88.891, 615.739 88.930 L 611.978 89 612.239 130.250 L 612.500 171.500 618 171.500 L 623.500 171.500 624.096 142 C 624.423 125.775, 624.767 112.275, 624.860 112 C 625.112 111.254, 634.546 130.939, 639.957 143.500 C 649.269 165.119, 652.376 171.052, 654.693 171.636 C 657.837 172.428, 658.654 171.638, 662.425 164.150 C 665.306 158.429, 679.361 128.229, 685.066 115.500 C 686.841 111.540, 686.859 111.796, 686.929 141.231 L 687 170.962 689.345 171.551 C 690.635 171.874, 693.448 171.995, 695.595 171.820 L 699.500 171.500 699.761 130.332 L 700.022 89.165 692.761 88.801 C 688.767 88.601, 685.050 88.586, 684.500 88.768 C 683.950 88.951, 680.277 96.615, 676.337 105.800 C 668.064 125.087, 658.824 145.127, 656.791 148.188 C 655.443 150.219, 655.313 150.108, 653.521 145.401 C 652.495 142.706, 649.032 134.979, 645.827 128.231 C 642.622 121.483, 640 115.752, 640 115.496 C 640 115.240, 637.700 110.186, 634.889 104.265 C 632.078 98.344, 629.147 92.037, 628.376 90.250 C 626.942 86.929, 625.268 86.381, 621.500 88 M 806 117.533 C 806 134.382, 805.617 148.017, 805.150 147.833 C 804.291 147.497, 801.032 143.476, 772.704 107.795 L 757.060 88.091 752.280 88.368 L 747.500 88.646 747.500 130.073 L 747.500 171.500 750.888 171.824 C 752.752 172.002, 755.333 171.882, 756.624 171.558 L 758.971 170.969 759.236 140.418 L 759.500 109.868 766.280 118.684 C 770.009 123.533, 776.221 131.325, 780.086 136 C 783.950 140.675, 790.327 148.775, 794.257 154 C 804.866 168.105, 808.812 172.003, 812.458 171.985 C 818.276 171.955, 818.044 173.832, 817.761 128.934 L 817.500 87.500 811.750 87.200 L 806 86.900 806 117.533 M 363.698 88.636 C 363.314 89.019, 363 93.083, 363 97.667 L 363 106 375.500 106 L 388 106 388 139 L 388 172 396.300 172 C 401.422 172, 405.059 171.541, 405.800 170.800 C 406.683 169.917, 407 161.207, 407 137.831 L 407 106.062 419.250 105.781 L 431.500 105.500 431.790 97.250 L 432.081 89 399.622 89 C 381.770 89, 366.541 88.761, 365.780 88.469 C 365.018 88.177, 364.082 88.252, 363.698 88.636 M 446.897 88.734 L 438.294 89.074 438.647 103.537 C 439.831 152.021, 439.284 146.168, 443.402 154.499 C 447.453 162.696, 450.316 165.393, 459.542 169.705 C 464.850 172.186, 466.590 172.483, 475.500 172.436 C 487.396 172.372, 492.349 170.560, 499.879 163.516 C 506.923 156.928, 509.834 149.782, 511.031 136.146 C 511.958 125.579, 511.691 90.357, 510.675 89.342 C 510.288 88.955, 497.142 88.687, 491.500 88.952 C 490.851 88.982, 490.616 98.049, 490.831 114.749 C 491.193 142.943, 490.792 145.909, 486.005 150.495 C 483.441 152.952, 481.990 153.463, 476.733 153.764 C 469.265 154.191, 464.559 152.066, 461.500 146.887 C 459.669 143.785, 459.458 141.184, 459 116.013 C 458.572 92.508, 458.283 88.516, 457 88.460 C 456.175 88.424, 451.629 88.547, 446.897 88.734 M 524.362 89.499 C 524.150 90.051, 524.095 108.727, 524.238 131.001 L 524.500 171.500 543.500 171.416 C 564.482 171.323, 570.490 170.305, 580.813 165.094 C 588.299 161.316, 596.119 152.850, 599.148 145.247 C 601.012 140.567, 601.442 137.551, 601.468 129 C 601.497 119.487, 601.227 117.910, 598.599 112.218 C 595.102 104.645, 586.806 96.525, 578.298 92.347 C 572.028 89.268, 575.349 89.558, 537.124 88.755 C 529.518 88.595, 524.599 88.882, 524.362 89.499 M 721.250 88.732 L 717 89.115 717 130.038 L 717 170.962 719.345 171.551 C 720.635 171.874, 723.448 171.995, 725.595 171.820 L 729.500 171.500 729.761 129.750 L 730.022 88 727.761 88.175 C 726.517 88.271, 723.587 88.522, 721.250 88.732 M 835.463 88.870 C 835.208 89.125, 835 107.933, 835 130.667 L 835 172 849.750 171.969 C 857.862 171.952, 867.875 171.507, 872 170.980 C 886.952 169.069, 899.759 160.010, 905.903 147 C 908.267 141.993, 908.500 140.380, 908.500 129 C 908.500 117.170, 908.346 116.208, 905.630 111.046 C 901.925 104.007, 893.912 96.284, 886.423 92.535 C 881.302 89.971, 879.214 89.533, 871 89.297 C 845.491 88.562, 835.887 88.446, 835.463 88.870 M 847.750 100.579 C 847.337 100.994, 847 114.577, 847 130.765 L 847 160.196 860.250 159.848 C 872.449 159.528, 873.965 159.272, 879.361 156.622 C 887.393 152.678, 891.348 148.944, 893.986 142.810 C 900.738 127.116, 895.535 111.595, 880.788 103.433 C 875.799 100.671, 874.736 100.486, 862 100.165 C 854.575 99.977, 848.163 100.164, 847.750 100.579 M 543 129.277 L 543 152.770 548.250 153.421 C 555.767 154.353, 566.282 152.611, 571.464 149.574 C 574.822 147.606, 576.555 145.578, 578.919 140.845 C 585.182 128.312, 581.299 114.868, 569.653 108.766 C 566.298 107.008, 563.337 106.512, 554.250 106.187 L 543 105.784 543 129.277" stroke="none" fill="#000000" fill-rule="evenodd"/></svg>